<?xml version="1.0" standalone="no"?>
<!DOCTYPE svg PUBLIC "-//W3C//DTD SVG 1.1//EN" "http://www.w3.org/Graphics/SVG/1.1/DTD/svg11.dtd" >
<svg xmlns="http://www.w3.org/2000/svg" xmlns:xlink="http://www.w3.org/1999/xlink" version="1.1">
<metadata></metadata>
<defs>
<font id="arroyoregular" horiz-adv-x="1024" >
<font-face units-per-em="2048" ascent="1638" descent="-410" />
<missing-glyph horiz-adv-x="410" />
<glyph horiz-adv-x="0" />
<glyph unicode="&#xd;" horiz-adv-x="0" />
<glyph unicode=" "  horiz-adv-x="410" />
<glyph unicode="&#x09;" horiz-adv-x="410" />
<glyph unicode="&#xa0;" horiz-adv-x="410" />
<glyph unicode="!" horiz-adv-x="461" d="M0 0v348h348v-348h-348zM0 1638h348l-61 -1187h-226z" />
<glyph unicode="&#x22;" horiz-adv-x="666" d="M2 1638h234l-95 -460h-49zM365 1638h237l-92 -460h-43z" />
<glyph unicode="#" d="M0 920l33 174l137 -2l33 200h-127l33 172h124l27 156l217 2l-26 -156l141 -2l29 156h215l-29 -154l131 -2l-33 -172l-129 2l-33 -204h119l-31 -170h-120l-27 -154h-213l27 154l-146 2l-24 -156h-217l26 154h-137zM383 1087l145 3l35 202l-145 2z" />
<glyph unicode="$" horiz-adv-x="922" d="M-10 1282q5 146 68 248t188 110v117l307 -2l-2 -119q55 0 103.5 -20.5t87 -59t58 -84t19.5 -100.5v-264l-295 2l-2 164q0 21 -15 44.5t-39.5 37.5t-51.5 14q-94 0 -94 -123q0 -73 4 -114q6 -39 23 -64.5t45.5 -48.5t51.5 -41q92 -72 167 -152.5t104 -130.5 q38 -66 58.5 -112.5t37 -125t16.5 -182.5q-7 -271 -254 -276l3 -164h-304v158q-29 1 -89 20t-120 94t-61 216l-2 208h309v-192q0 -51 32.5 -76.5t80.5 -25.5q87 6 100 110q2 14 3.5 28t2 19.5t0.5 22.5q0 111 -73 182q-54 54 -109.5 106.5t-97 92.5t-91 88t-98.5 96 q-34 35 -52.5 117t-18.5 182z" />
<glyph unicode="%" horiz-adv-x="1229" d="M0 1006v307q0 29 20.5 70.5t66.5 73.5t120 32q93 -3 148 -45.5t55 -108.5v-321q0 -76 -47 -138.5t-160 -62.5q-63 0 -124.5 34.5t-78.5 158.5zM39 0l827 1636l207 -4l-829 -1632h-205zM154 1022q0 -72 53 -72q18 0 33.5 16.5t15.5 51.5v270v2q0 34 -11 47t-40 13 q-37 0 -47 -70q-1 -10 -2 -107.5t-2 -150.5zM741 293v307q0 29 20.5 70.5t66.5 73.5t120 32q93 -3 148 -45.5t55 -107.5v-322q0 -76 -47 -138.5t-160 -62.5q-63 0 -124.5 34.5t-78.5 158.5zM895 309q0 -71 53 -71q19 0 34 15.5t15 51.5v270v3q0 33 -11 46t-40 13 q-37 0 -47 -70q-1 -10 -2 -107t-2 -151z" />
<glyph unicode="&#x26;" d="M0 1219q0 114 31.5 205.5t122.5 152.5t256 61t279 -96t128 -323h-305v2q0 90 -94 90q-61 0 -88 -35t-27 -94q3 -43 26.5 -76t110.5 -43v-293q-55 0 -93 -16.5t-38 -48.5l2 -379q0 -28 25.5 -56t73.5 -28q44 0 73 27t29 63v733h428v-293h-121v-399q0 -167 -84.5 -285 t-304.5 -121q-89 0 -184 44t-160.5 129.5t-71.5 203.5q-3 50 -4.5 84.5t-2.5 70.5t-1 156q0 77 28 131.5t109 135.5q-67 47 -105 113t-38 184z" />
<glyph unicode="'" horiz-adv-x="410" d="M0 1290v348h287v-348l-164 -194l-92 71l112 123h-143z" />
<glyph unicode="(" horiz-adv-x="563" d="M0 389v860q0 170 108 290t343 120v-287q-59 -16 -81 -48t-22 -116v-788q0 -39 17.5 -69.5t85.5 -63.5v-287q-123 0 -227.5 53t-164 143.5t-59.5 192.5z" />
<glyph unicode=")" horiz-adv-x="563" d="M0 0v287q69 34 85.5 64t16.5 69v788q0 83 -21.5 115.5t-80.5 48.5v287q123 0 210 -34.5t141 -94.5t77 -131t23 -150v-860q0 -102 -59.5 -192.5t-164 -143.5t-227.5 -53z" />
<glyph unicode="*" horiz-adv-x="614" d="M0 1325v131h135l-67 117l112 65l68 -116l69 116l113 -65l-68 -117h138v-131h-140l70 -119l-113 -65l-69 119l-68 -119l-112 65l67 119h-135z" />
<glyph unicode="+" horiz-adv-x="1075" d="M-4 717v307h328v328h307v-328h327v-307h-327v-328h-307v328h-328z" />
<glyph unicode="," horiz-adv-x="461" d="M0 0v348h348v-348l-225 -195l-92 72l112 123h-143z" />
<glyph unicode="-" horiz-adv-x="614" d="M0 553v287h512v-287h-512z" />
<glyph unicode="." horiz-adv-x="461" d="M0 0v348h348v-348h-348z" />
<glyph unicode="/" horiz-adv-x="922" d="M14 0l502 1638h348l-491 -1638h-359z" />
<glyph unicode="0" d="M4 389v860q0 131 65 223.5t170 138.5t224 46q118 -2 218 -49t162 -138.5t62 -220.5v-860q0 -90 -33.5 -161t-94 -121.5t-136.5 -76t-158 -30.5q-132 0 -240.5 44.5t-173.5 133.5t-65 211zM352 420q0 -64 33.5 -98.5t77.5 -34.5q40 3 67 34.5t27 88.5v802q0 75 -25 118 t-77 44q-44 0 -73.5 -41t-29.5 -125v-788z" />
<glyph unicode="1" horiz-adv-x="655" d="M2 1229v241q88 29 155 68t119 100h277v-1638h-342v1274q-118 -45 -209 -45z" />
<glyph unicode="2" d="M8 0q11 176 67 321t126.5 244t116 143.5t96.5 86.5q66 56 94.5 100.5t40.5 117t12 210.5q0 64 -30 96.5t-74 32.5q-40 -3 -69 -38t-30 -93q-2 -45 -2 -238h-348v266q0 106 60.5 196t164 141.5t226.5 51.5t226.5 -51.5t163.5 -141.5t60 -196v-194q0 -102 -64 -194.5 t-215.5 -271.5t-221.5 -304l501 2v-287h-901z" />
<glyph unicode="3" d="M8 381v246h348v-215q0 -47 26 -90t77 -43q44 0 70 22t30 100q2 48 2 205q-3 63 -16 95.5t-42 46.5t-81 18t-168 4v246q124 0 186 7.5t91.5 32.5t29.5 81q0 86 -2 110q-3 45 -29.5 81t-70.5 36q-38 0 -69 -31t-34 -88v-106h-348l2 143q1 84 41 153.5t107 119.5t145 75 t152 25q89 0 171 -30.5t145 -85t100.5 -132t37.5 -166.5q0 -98 -31.5 -191.5t-91.5 -156.5q29 -16 57 -55.5t47 -94.5t19 -106v-256q0 -100 -56.5 -190t-160.5 -144.5t-233 -54.5q-97 0 -202.5 42t-177 130.5t-71.5 216.5z" />
<glyph unicode="4" d="M2 246v286l358 1106h461v-1106h103v-286h-103v-246h-327v246h-492zM309 532h185v615z" />
<glyph unicode="5" d="M4 389v246h348v-232q4 -41 30 -78.5t73 -37.5q40 0 71 33.5t31 89.5v389q0 164 -102 164q-41 -5 -72 -36.5t-31 -127.5h-348v839h901v-286h-553v-205q5 3 24.5 18t46 27t67.5 19.5t98 7.5q78 0 151 -45.5t119.5 -132t46.5 -201.5v-451q0 -100 -56.5 -190t-160.5 -144.5 t-233 -54.5q-98 0 -204 42.5t-176.5 131.5t-70.5 215z" />
<glyph unicode="6" d="M4 389v860q0 102 56.5 196.5t159.5 154t235 59.5q106 0 210 -48t172 -142t68 -220v-102h-348l-2 96q-1 56 -30.5 91t-65.5 38q-42 0 -75.5 -33.5t-33.5 -95.5l2 -280q13 10 36.5 26.5t73 30.5t126.5 14q78 0 151 -45.5t119.5 -132t46.5 -201.5v-266q0 -100 -56.5 -190 t-160.5 -144.5t-233 -54.5q-98 0 -204 42.5t-176.5 131.5t-70.5 215zM350 649l2 -229q0 -62 34 -98.5t77 -36.5q38 2 66 33.5t28 91.5l-2 239q0 58 -31 92.5t-69 36.5q-39 0 -72 -33.5t-33 -95.5z" />
<glyph unicode="7" d="M4 1356v286h860l-2 -120q-96 -246 -173.5 -502t-134 -502t-99.5 -514h-328q26 220 74 438.5t102.5 408t151.5 505.5h-451z" />
<glyph unicode="8" d="M6 1249q10 169 120.5 285.5t338.5 120.5q114 0 215 -45t165 -137.5t68 -223.5q0 -95 -29.5 -185t-92.5 -167q45 -25 83.5 -84.5t38.5 -171.5v-256q0 -100 -56.5 -190t-160.5 -144.5t-233 -54.5q-98 0 -203.5 43t-176.5 131.5t-71 214.5v246q0 80 35 163t88 103 q-57 37 -93 132t-36 220zM358 1212q0 -172 105 -172q45 0 73.5 49.5t30.5 114.5q0 67 -26.5 115.5t-77.5 48.5q-41 0 -70 -46.5t-35 -109.5zM360 406q0 -45 25.5 -80t77.5 -35q41 0 71.5 29.5t30.5 85.5v204q0 77 -28 120.5t-74 43.5q-45 0 -69 -35t-34 -129v-204z" />
<glyph unicode="9" d="M4 410v102h348l2 -96q1 -54 31 -90t66 -39q42 0 75 33t33 96l-2 280q-11 -9 -35 -26.5t-73.5 -31t-126.5 -13.5q-123 0 -220.5 104t-97.5 275v266q0 75 32.5 145t93 126t144 87t181.5 31q73 0 151 -23t146 -71t110.5 -123t42.5 -172v-860q0 -102 -56.5 -197t-160 -154 t-233.5 -59q-107 0 -211 48t-172 142t-68 220zM352 1249l2 -239q0 -58 31.5 -92.5t69.5 -36.5q39 0 71.5 34t32.5 95l-2 229q0 63 -33.5 99t-77.5 36q-38 -2 -66 -33.5t-28 -91.5z" />
<glyph unicode=":" horiz-adv-x="451" d="M0 0v348h348v-348h-348zM0 1004v348h348v-348h-348z" />
<glyph unicode=";" horiz-adv-x="451" d="M0 0v348h348v-348l-225 -195l-92 72l112 123h-143zM0 1004v348h348v-348h-348z" />
<glyph unicode="&#x3c;" d="M0 553v246l922 553v-226l-738 -450l738 -451v-225z" />
<glyph unicode="=" horiz-adv-x="717" d="M0 461v164h655v-164h-655zM0 788v164h655v-164h-655z" />
<glyph unicode="&#x3e;" d="M0 0v225l737 451l-737 450v226l922 -553v-246z" />
<glyph unicode="?" horiz-adv-x="922" d="M6 1169q0 160 56 273.5t151 171t209 59.5q99 0 184 -34.5t144.5 -117.5t72.5 -212v-10.5t1.5 -13.5t3 -18.5t1.5 -21.5q0 -72 -12 -227q-6 -83 -21 -115t-75 -90q-35 -34 -100 -95.5t-87 -89t-22 -48.5v-140h-334l2 162q1 76 67.5 154.5t170.5 169.5q23 18 57.5 59 t36.5 90q4 74 4 94q0 85 -20 117.5t-74 32.5q-46 -5 -77.5 -33.5t-31.5 -122.5v-164h-305zM174 0v348h348v-348h-348z" />
<glyph unicode="@" horiz-adv-x="1536" d="M-10 741q1 165 69.5 302.5t184.5 234t255.5 146t282.5 49.5q113 0 229 -35.5t214.5 -108t158.5 -184t60 -258.5q-3 -110 -48.5 -227t-139 -198t-230.5 -81q-33 0 -64.5 11.5t-55 29t-40.5 35t-35 37.5q-53 -46 -92 -65t-116 -19q-103 0 -170.5 92t-67.5 207q0 64 21 110 q47 113 107 171t123.5 77.5t137.5 19.5q41 0 78.5 -25t62.5 -71l37 64h166l-160 -437q-4 -16 -4 -24q0 -29 18.5 -50.5t53.5 -21.5q55 0 106.5 37t87.5 105t46 153q0 75 -24.5 155t-81 151t-151 115t-229.5 44q-136 0 -272.5 -63.5t-225 -189.5t-89.5 -298q0 -146 75 -255.5 t189.5 -168.5t228.5 -61q7 1 24 1t33 -1q142 -4 258 49l68 -148q-42 -16 -77 -29.5t-73.5 -21.5t-107 -12t-154.5 -4q-157 2 -312 75.5t-255 223t-100 362.5zM575 690q0 -94 76 -112q21 -7 41 -7q31 0 53.5 12.5t30.5 32.5l78 189q4 8 4 24q0 35 -29.5 61.5t-72.5 29.5 q-50 0 -102 -35.5t-70 -120.5q-9 -40 -9 -74z" />
<glyph unicode="A" d="M0 0l184 1638h533l194 -1638h-368l-21 246h-135l-18 -246h-369zM397 512h111l-57 666z" />
<glyph unicode="B" d="M0 0v1638h492q194 0 301.5 -77.5t107.5 -235.5v-188q0 -92 -6 -130t-30.5 -66.5t-94.5 -74.5q131 -78 131 -219v-371q0 -95 -86 -185.5t-387 -90.5h-428zM348 287h82q123 7 123 114v187q0 68 -27 97t-96 32h-82v-430zM348 1004h82q59 3 91 29t32 85v105q0 54 -23 88.5 t-100 40.5h-82v-348z" />
<glyph unicode="C" d="M0 389v860q0 129 63.5 222t167 139.5t220.5 46.5q89 0 167.5 -25.5t143 -76.5t102 -129t37.5 -177v-266h-348v229q0 59 -25 109.5t-77 50.5q-46 0 -70 -35.5t-33 -128.5v-788q0 -47 26 -90t77 -43q39 0 69 33t33 90v286h348v-307q0 -100 -56.5 -190t-160.5 -144.5 t-233 -54.5q-98 0 -204 42.5t-176.5 131.5t-70.5 215z" />
<glyph unicode="D" d="M0 0v1638h440q180 0 310.5 -71.5t130.5 -325.5v-913v-2q-5 -192 -145 -259t-312 -67h-424zM348 287q88 4 136 33t48 120v746q0 107 -44.5 136.5t-139.5 29.5v-1065z" />
<glyph unicode="E" horiz-adv-x="819" d="M0 0v1638h717v-286h-369v-287h369v-287h-369v-491h369v-287h-717z" />
<glyph unicode="F" horiz-adv-x="819" d="M0 0v1638h717v-266h-369v-368h369v-267h-369v-737h-348z" />
<glyph unicode="G" horiz-adv-x="983" d="M0 389v860q0 102 56.5 196.5t159.5 154t235 59.5q106 0 210 -48t172 -142t68 -220v-174h-348v137q0 68 -32.5 116t-74.5 48q-24 0 -46.5 -17.5t-37 -55t-14.5 -95.5v-788q0 -64 30 -97.5t73 -33.5q40 0 71 32.5t31 88.5v286h-102v287h450v-983h-123l-71 82 q-154 -76 -258 -76q-133 0 -235.5 55.5t-158 144.5t-55.5 183z" />
<glyph unicode="H" horiz-adv-x="983" d="M0 0v1638h348v-573h184v573h349v-1638h-349v778h-184v-778h-348z" />
<glyph unicode="I" horiz-adv-x="451" d="M0 0v1638h348v-1638h-348z" />
<glyph unicode="J" d="M0 420v358h348v-368q0 -58 30 -90.5t73 -32.5q41 0 71.5 31.5t30.5 87.5v1232h348v-1218q0 -196 -131 -307t-311 -113q-85 0 -167.5 26t-148.5 79t-104.5 133.5t-38.5 181.5z" />
<glyph unicode="K" d="M0 0v1638h348v-573l184 573h338l-235 -716l287 -922h-338l-236 778v-778h-348z" />
<glyph unicode="L" horiz-adv-x="819" d="M0 0v1638h348v-1351h348v-287h-696z" />
<glyph unicode="M" horiz-adv-x="1516" d="M0 0v1638h532l164 -788l164 788h533v-1638h-349v1065l-184 -1065h-328l-184 1065v-1065h-348z" />
<glyph unicode="N" horiz-adv-x="983" d="M0 0v1638h348l246 -573v573h287v-1638h-287l-246 778v-778h-348z" />
<glyph unicode="O" d="M0 389v860q0 102 56.5 196.5t159.5 154t235 59.5q106 0 210 -48t172 -142t68 -220v-860q0 -100 -56.5 -190t-160.5 -144.5t-233 -54.5q-98 0 -204 42.5t-176.5 131.5t-70.5 215zM348 420q0 -64 30 -97.5t73 -33.5q40 0 71 32.5t31 88.5v802q0 71 -27.5 116t-74.5 46 q-45 0 -74 -39.5t-29 -126.5v-788z" />
<glyph unicode="P" d="M0 0v1638h492q194 0 301.5 -77.5t107.5 -235.5v-260q0 -348 -409 -348h-144v-717h-348zM348 1004q108 0 156.5 21t48.5 93v105q0 59 -20.5 87t-62.5 35t-122 7v-348z" />
<glyph unicode="Q" d="M0 389v860q0 102 56.5 196.5t159.5 154t235 59.5q106 0 210 -48t172 -142t68 -220v-860q0 -108 -63 -205l137 -102l-156 -184l-182 135q-17 -10 -41.5 -18t-46.5 -10.5t-51 -4t-54 -2.5q-63 0 -139.5 25t-147 74.5t-114 124t-43.5 167.5zM348 420q0 -46 25.5 -89.5 t77.5 -43.5q40 0 71 33.5t31 89.5v802q0 59 -25 109.5t-77 50.5q-103 0 -103 -164v-788z" />
<glyph unicode="R" d="M0 0v1638h492q194 0 301.5 -77.5t107.5 -235.5v-260q0 -85 -9.5 -132t-23 -68.5t-33.5 -36.5t-47 -35l103 -793h-359l-81 717h-103v-717h-348zM348 1004q81 0 120 6t62 30.5t23 77.5v105q0 57 -18 84t-60.5 36t-126.5 9v-348z" />
<glyph unicode="S" d="M0 389v266h348v-272q0 -32 28.5 -64t74.5 -32q33 0 67.5 22.5t34.5 69.5q0 88 -46 162.5t-91 117.5q-35 36 -93.5 89t-103.5 93.5t-75 71t-70 82.5q-74 95 -74 254q0 102 56.5 196.5t159.5 154t235 59.5q106 0 210 -48t172 -142t68 -220v-143h-348v184q0 31 -26 56.5 t-72 25.5q-36 0 -71.5 -24.5t-35.5 -92.5q0 -51 86 -129q27 -24 69 -62t92 -87t99 -102t94 -113q58 -77 85.5 -150.5t27.5 -222.5q0 -100 -56.5 -190t-160.5 -144.5t-233 -54.5q-98 0 -204 42.5t-176.5 131.5t-70.5 215z" />
<glyph unicode="T" horiz-adv-x="881" d="M0 1352v286h758v-286h-205v-1352h-348v1352h-205z" />
<glyph unicode="U" d="M0 420v1218h348v-1228q0 -39 26 -81t77 -42q43 0 72.5 35.5t29.5 83.5v1232h348v-1218q0 -129 -68.5 -225t-173.5 -145.5t-208 -49.5q-105 0 -209.5 49.5t-173 145.5t-68.5 225z" />
<glyph unicode="V" horiz-adv-x="1065" d="M0 1638h369l102 -983l102 983h369l-225 -1638h-492z" />
<glyph unicode="W" horiz-adv-x="1556" d="M0 1638h369l92 -860l82 860h348l82 -860l92 860h369l-185 -1638h-430l-102 778l-103 -778h-430z" />
<glyph unicode="X" horiz-adv-x="1106" d="M0 0l184 860l-164 778h369l103 -409l102 409h369l-164 -778l184 -860h-369l-122 532l-123 -532h-369z" />
<glyph unicode="Y" horiz-adv-x="1065" d="M0 1638h369l102 -430l102 430h369l-297 -1106v-532h-348v532z" />
<glyph unicode="Z" horiz-adv-x="963" d="M0 0v287l492 1065h-472v286h820v-286l-492 -1065h471v-287h-819z" />
<glyph unicode="[" horiz-adv-x="778" d="M0 0v1638h676v-286h-369v-1065h369v-287h-676z" />
<glyph unicode="\" horiz-adv-x="983" d="M20 1638h349l501 -1638h-358z" />
<glyph unicode="]" horiz-adv-x="778" d="M0 0v287h369v1065h-369v286h676v-1638h-676z" />
<glyph unicode="^" horiz-adv-x="942" d="M0 1229l307 409h205l307 -409l-248 -2l-163 207l-152 -207z" />
<glyph unicode="_" d="M0 -133h1024v-174h-1024v174z" />
<glyph unicode="`" horiz-adv-x="512" d="M0 1642h262l172 -544h-164z" />
<glyph unicode="a" horiz-adv-x="942" d="M4 442q1 163 37.5 238t124.5 127q33 19 48.5 27.5t40 19.5t84 33.5t153.5 54.5q0 122 -10 161.5t-60 39.5q-33 0 -49 -19t-20.5 -50t-4.5 -91h-297q0 113 43 200t128 137t208 54q84 0 174.5 -32t152.5 -101t62 -176v-1065h-327v82q-77 -100 -236 -100q-92 6 -147.5 53 t-80 144t-24.5 263zM328 274q0 -29 24 -50t58 -21q44 0 65 51q3 5 12 147q5 66 5 295q-98 -35 -131 -78.5t-33 -95.5v-248z" />
<glyph unicode="b" horiz-adv-x="942" d="M0 0v1638h328v-368q-1 -3 -2 -3.5t-2 -0.5q0 4 25.5 32t67 51t95.5 23q108 0 177 -54.5t99.5 -134t30.5 -159.5v-696q0 -80 -30.5 -159t-100 -133t-176.5 -54q-101 0 -184 100v-82h-328zM326 322q0 -33 20 -75t66 -42h2q35 0 55 20.5t20 96.5l3 655q0 87 -17 128.5 t-65 41.5q-39 0 -60.5 -28.5t-21.5 -141.5z" />
<glyph unicode="c" horiz-adv-x="922" d="M0 369v614q0 124 59 213t154 132.5t203 43.5q105 0 197 -44.5t149 -133t57 -211.5v-164h-327v176q-1 65 -25.5 103.5t-58.5 40.5q-32 0 -55.5 -36t-24.5 -108v-659q7 -70 32 -105.5t54 -35.5q30 2 53.5 39t24.5 102v196h327v-163q0 -122 -56.5 -209t-148.5 -131.5 t-198 -46.5q-78 0 -152 24t-134.5 73t-95 122t-34.5 168z" />
<glyph unicode="d" horiz-adv-x="942" d="M0 328v696q0 80 30.5 159.5t99.5 134t177 54.5q77 0 124.5 -39.5t64.5 -66.5l-4 4v368h327v-1638h-327v82q-85 -100 -185 -100q-107 0 -176.5 54t-100 133t-30.5 159zM328 977l2 -655q0 -74 20.5 -95.5t55.5 -21.5h2q47 0 66.5 41.5t19.5 75.5l-2 655q0 113 -21.5 141.5 t-60.5 28.5q-48 0 -65 -41.5t-17 -128.5z" />
<glyph unicode="e" horiz-adv-x="922" d="M0 369v614q0 123 57 211t148.5 132t197.5 46q107 0 202.5 -43.5t154.5 -132.5t59 -213v-348h-491v-299q8 -68 20.5 -104.5t61.5 -36.5q36 0 59 26.5t23 114.5v196h327v-163q0 -122 -56.5 -209t-148.5 -131.5t-198 -46.5q-78 0 -152 24t-134.5 73t-95 122t-34.5 168z M328 891h164l-3 127q-2 58 -18 88.5t-61 30.5q-31 0 -50.5 -21t-27.5 -94q-4 -33 -4 -131z" />
<glyph unicode="f" horiz-adv-x="614" d="M0 1147v205h82v106q0 84 55.5 153.5t181.5 69.5q10 0 173 -22v-195h-3q-4 4 -14 4q-24 0 -44.5 -26t-20.5 -90h82v-205h-82v-1147h-328v1147h-82z" />
<glyph unicode="g" horiz-adv-x="983" d="M4 -41l109 195q90 -46 140.5 -67.5t104.5 -25.5q99 0 136 45q30 41 38 160q-40 -48 -81 -75t-103 -27q-79 0 -150 47t-114 126.5t-43 174.5v512q0 69 29.5 150t98.5 139.5t179 58.5q52 0 94 -20.5t90 -81.5v82h328v-1188q0 -92 -58.5 -163t-155.5 -113.5t-208 -53.5 q-48 -4 -71 -4q-110 0 -205.5 33t-157.5 96zM369 530q7 -67 20 -104t62 -37q35 0 58 26.5t23 114.5v467q-5 72 -17.5 109.5t-59.5 40.5q-45 0 -65.5 -34t-20.5 -103v-480z" />
<glyph unicode="h" horiz-adv-x="942" d="M0 0v1638h328v-368q74 98 184 102q156 0 230 -93t77 -249v-1030h-327v1006q-3 80 -22.5 110.5t-59.5 30.5q-34 0 -56.5 -23.5t-25.5 -117.5v-1006h-328z" />
<glyph unicode="i" horiz-adv-x="451" d="M0 0v1352h328v-1352h-328zM0 1495v143h328v-143h-328z" />
<glyph unicode="j" horiz-adv-x="532" d="M0 82q20 -10 37 -10q42 0 45 51v1229h328v-1295q0 -56 -30 -110.5t-81.5 -87.5t-112.5 -33q-94 0 -186 33v223zM82 1495v143h328v-143h-328z" />
<glyph unicode="k" horiz-adv-x="983" d="M0 0v1638h328v-696l143 410h348l-215 -574l256 -778h-348l-184 614v-614h-328z" />
<glyph unicode="l" horiz-adv-x="451" d="M0 0v1638h328v-1638h-328z" />
<glyph unicode="m" horiz-adv-x="1434" d="M0 0v1352h328v-82q33 48 94 76t129 28q44 -2 84 -19t74.5 -52t56.5 -91q36 72 108 119t158 47q75 0 139.5 -45t102 -125t37.5 -184v-1024h-328v1006q-3 81 -23 111t-59 30q-64 0 -82 -123v-1024h-327v1006q-3 80 -22.5 110.5t-59.5 30.5q-39 0 -59 -30t-23 -111v-1006 h-328z" />
<glyph unicode="n" horiz-adv-x="942" d="M0 0v1352h328v-82q74 98 184 102q88 0 149.5 -33.5t94.5 -84.5t47 -108t16 -116v-1030h-327v1006q-3 80 -22.5 110.5t-59.5 30.5q-34 0 -56.5 -23.5t-25.5 -117.5v-1006h-328z" />
<glyph unicode="o" horiz-adv-x="901" d="M0 369v614q0 123 57 211t148.5 132t197.5 46q107 0 202.5 -43.5t154.5 -132.5t59 -213v-614q0 -122 -56.5 -209t-148.5 -131.5t-198 -46.5q-78 0 -152 24t-134.5 73t-95 122t-34.5 168zM328 336q8 -68 20.5 -104.5t61.5 -36.5q36 0 59 26.5t23 114.5v631q0 87 -17 128.5 t-65 41.5q-39 0 -60.5 -28.5t-21.5 -141.5v-631z" />
<glyph unicode="p" horiz-adv-x="942" d="M0 -287v1639h328v-82q-1 -3 -2 -3.5t-2 -0.5q0 4 25.5 32t67 51t95.5 23q108 0 177 -54.5t99.5 -134t30.5 -159.5v-696q0 -80 -30.5 -159t-100 -133t-176.5 -54q-101 0 -184 100v-369h-328zM328 346q8 -68 20.5 -104.5t61.5 -36.5q36 0 59 26.5t23 114.5v666 q-6 73 -23.5 104t-56.5 31q-45 0 -64.5 -36.5t-19.5 -113.5v-651z" />
<glyph unicode="q" horiz-adv-x="942" d="M0 328v696q0 80 30.5 159.5t99.5 134t177 54.5q77 0 124.5 -39.5t64.5 -66.5l-4 4v82h327v-1639h-327v369q-85 -100 -185 -100q-107 0 -176.5 54t-100 133t-30.5 159zM328 346q0 -88 23 -114.5t59 -26.5q50 0 62.5 39t19.5 102v651q0 77 -19 113.5t-65 36.5 q-40 0 -57 -31.5t-23 -103.5v-666z" />
<glyph unicode="r" horiz-adv-x="942" d="M0 0v1352h328v-82q-1 -3 -2 -3.5t-2 -0.5q0 4 25.5 32t67 51t95.5 23q142 0 224.5 -81.5t82.5 -266.5v-287h-327v269q-3 80 -22.5 110.5t-59.5 30.5q-35 0 -58.5 -24t-23.5 -117v-1006h-328z" />
<glyph unicode="s" horiz-adv-x="942" d="M0 369v90h328v-162q0 -30 21.5 -56t60.5 -26q28 0 49.5 26.5t21.5 59.5q0 70 -37 127q-36 53 -92 104q-38 33 -82 71.5t-84.5 78t-93.5 100.5q-72 86 -72 201q0 111 42 197t130 137.5t218 54.5q104 0 198 -30.5t152.5 -91.5t58.5 -144v-164h-327v129q0 25 -24.5 45.5 t-59.5 20.5q-22 0 -51 -19.5t-29 -81.5q7 -39 78 -92q55 -42 167 -143q242 -219 246 -432q0 -97 -45 -186t-137.5 -145t-226.5 -56q-137 0 -230.5 51.5t-136.5 139.5t-43 196z" />
<glyph unicode="t" horiz-adv-x="614" d="M0 1147v205h82v204l328 82v-286h82v-205h-82v-897q0 -20 15.5 -34.5t39.5 -14.5q16 0 27 4v-225q-14 -2 -43 -7.5t-60 -8.5t-53 -3q-90 0 -172 53t-82 166v967h-82z" />
<glyph unicode="u" horiz-adv-x="942" d="M0 328v1024h328v-1006q8 -68 20.5 -104.5t61.5 -36.5q36 0 59 26.5t23 114.5v1006h327v-1352h-327v82q-83 -100 -185 -100q-134 6 -220.5 96t-86.5 250z" />
<glyph unicode="v" horiz-adv-x="983" d="M0 1352h328l102 -758l102 758h328l-235 -1352h-389z" />
<glyph unicode="w" horiz-adv-x="1434" d="M0 1352h348l72 -656l92 656h287l92 -656l72 656h348l-195 -1352h-348l-113 696l-112 -696h-348z" />
<glyph unicode="x" horiz-adv-x="973" d="M0 0l143 758l-123 594h349l61 -389l62 389h348l-123 -594l143 -758h-348l-82 573l-82 -573h-348z" />
<glyph unicode="y" horiz-adv-x="963" d="M0 41h180q13 0 21 14.5t8 30.5l-209 1266h328l92 -758l92 758h328l-238 -1413q-7 -42 -53 -71.5t-94 -29.5l-455 2v201z" />
<glyph unicode="z" horiz-adv-x="881" d="M0 0v266l430 819h-410v267h738v-287l-430 -799h409v-266h-737z" />
<glyph unicode="{" horiz-adv-x="696" d="M0 676v287h123v286q0 81 28 155.5t81 133.5t123.5 92t154.5 33q41 0 63 -4v-287q-58 -16 -80 -48t-22 -116v-788q0 -39 18 -70t84 -63v-287q-119 0 -223 51t-165.5 139.5t-61.5 198.5v287h-123z" />
<glyph unicode="|" horiz-adv-x="379" d="M0 0v1636h276v-1636h-276z" />
<glyph unicode="}" horiz-adv-x="696" d="M4 0v287q69 34 85.5 64t16.5 69v788q0 83 -21.5 115.5t-80.5 48.5v287q23 4 64 4q110 0 198.5 -57.5t138.5 -152.5t50 -204v-286h123v-287h-123v-287q0 -110 -61.5 -198.5t-166.5 -139.5t-223 -51z" />
<glyph unicode="~" horiz-adv-x="952" d="M0 840q83 83 168 102q30 6 61 6q55 0 163 -31t167 -34q104 0 189 49l81 -287q-76 -57 -176 -57q-38 0 -102 13.5t-112.5 26.5t-89 22t-83.5 9q-112 -3 -184 -106z" />
<glyph unicode="&#xa1;" horiz-adv-x="471" d="M0 -287l61 1188h226l61 -1188h-348zM0 1004v348h348v-348h-348z" />
<glyph unicode="&#xa2;" horiz-adv-x="911" d="M0 369v614q0 134 75.5 233t190.5 127v160h277l2 -147q115 -38 194.5 -137.5t79.5 -235.5v-164h-327v185q0 67 -25.5 101t-58.5 34q-32 -3 -56 -41.5t-24 -102.5v-659q7 -68 30.5 -103.5t53.5 -37.5q32 0 56 38t24 103v196h327v-163q0 -105 -59 -205.5t-215 -163.5 l-2 -154h-277v154q-106 38 -186 132.5t-80 236.5z" />
<glyph unicode="&#xa3;" horiz-adv-x="1126" d="M0 0v287q37 0 61 7.5t39 32t15 70.5l-2 381h-113v287h113v184q0 102 56.5 197t160 154t233.5 59q77 0 156 -26t147.5 -78.5t108 -129t39.5 -176.5v-112h-348v75q0 59 -25 109.5t-78 50.5q-40 0 -70 -37t-30 -108l-2 -162h307v-287h-307v-491h553v-287h-1014z" />
<glyph unicode="&#xa4;" horiz-adv-x="1085" d="M0 612l96 97q-35 52 -35 131t35 151l-96 96l246 246l98 -98q70 37 137 37q72 0 140 -37l100 98l246 -246l-97 -98q29 -59 29 -133q0 -72 -29 -147l97 -97l-246 -245l-88 86q-70 -37 -154 -37q-73 0 -153 30l-80 -79zM307 827q0 -57 42.5 -124.5t133.5 -67.5q41 0 81.5 24 t66.5 69t26 103q0 41 -16.5 85.5t-56.5 76t-101 31.5q-42 0 -83.5 -24t-67 -68t-25.5 -105z" />
<glyph unicode="&#xa5;" horiz-adv-x="1065" d="M0 317v175h295l-25 143h-270v174h221l-221 829h369l102 -430l102 430h369l-225 -829h225v-174h-270l-29 -143h299v-175h-299l2 -317h-348l-2 317h-295z" />
<glyph unicode="&#xa6;" horiz-adv-x="410" d="M0 0v737h276v-737h-276zM0 946v690h276v-690h-276z" />
<glyph unicode="&#xa7;" horiz-adv-x="768" d="M0 301v72h262v-129q0 -23 19.5 -43.5t54.5 -20.5q42 14 49 64q0 40 -6 62.5t-13 31t-12 12.5q-1 1 -19 24.5t-49 54t-85 73.5q-81 70 -133 135t-52 156q0 74 12 116t44 75.5t102 86.5q-61 56 -95 96.5t-48.5 80t-14.5 93.5q0 91 35.5 161.5t111.5 110.5t189 40 q77 0 148 -24.5t113 -73t42 -115.5v-131h-262v102q0 20 -16 36.5t-47 16.5q-40 0 -54 -19t-14 -61q0 -26 62 -73q91 -71 148.5 -124t121.5 -143q61 -88 61 -194q0 -83 -23.5 -131t-115.5 -129q45 -35 92 -114.5t47 -174.5q0 -87 -40 -157.5t-115 -111t-172 -40.5 q-174 0 -251 90t-77 219zM262 793q0 -21 19.5 -42.5t52.5 -21.5q18 0 38.5 15.5t20.5 48.5v73q0 21 -23 35t-46 14q-17 0 -39.5 -12t-22.5 -37v-73z" />
<glyph unicode="&#xa8;" horiz-adv-x="737" d="M4 1415v205h205v-203zM463 1417v203h199l2 -203h-201z" />
<glyph unicode="&#xa9;" horiz-adv-x="1085" d="M0 1147q0 86 34 174t97 159.5t155 114.5t206 43q87 0 176 -34t159.5 -96.5t114 -155.5t43.5 -205q0 -86 -33 -172.5t-97.5 -159.5t-157.5 -116.5t-205 -43.5q-116 0 -231 60.5t-188 172t-73 259.5zM84 1147q0 -155 112.5 -282.5t297.5 -127.5q90 0 186 45.5t159.5 138.5 t63.5 226q0 90 -45.5 186t-138.5 159.5t-225 63.5q-98 0 -193 -49t-156 -142.5t-61 -217.5zM307 969v344q0 58 44 111t136 53q52 0 93 -24t64.5 -62t23.5 -78v-107h-140v92q-9 64 -41 64q-25 -4 -41 -66v-315q0 -18 13.5 -37t29.5 -20q26 0 39 47v121h140v-123 q0 -61 -46.5 -108.5t-134.5 -47.5q-63 0 -121.5 39t-58.5 117z" />
<glyph unicode="&#xaa;" horiz-adv-x="573" d="M0 502v215h492v-215h-492zM0 987v98q1 10 7 56.5t29 95.5t70 84q12 9 31.5 21t60.5 29.5t97 33.5v43q0 26 -13.5 37.5t-31.5 11.5q-17 -2 -29 -15.5t-12 -33.5v-43h-178v49q0 85 64 133t155 51q99 0 170.5 -47.5t71.5 -136.5v-639h-197v49q-49 -61 -141 -61 q-56 4 -105 49t-49 135zM197 1061q0 -71 14 -95t41 -28q43 0 43 86v233q-44 -11 -71 -33.5t-27 -95.5v-67z" />
<glyph unicode="&#xab;" horiz-adv-x="1516" d="M0 553v246l696 409v-225l-512 -307l512 -316v-225zM696 553v246l697 409v-225l-512 -307l512 -316v-225z" />
<glyph unicode="&#xac;" d="M4 709v184h959v-361h-238v177h-721z" />
<glyph unicode="&#xad;" horiz-adv-x="637" d="M0 449v256h571v-256h-571z" />
<glyph unicode="&#xae;" horiz-adv-x="1065" d="M0 1147q0 86 34 174t97 159.5t155 114.5t206 43q87 0 176 -34t159.5 -96.5t114 -155.5t43.5 -205q0 -86 -33 -172.5t-97.5 -159.5t-157.5 -116.5t-205 -43.5q-116 0 -231 60.5t-188 172t-73 259.5zM84 1147q0 -155 112.5 -282.5t297.5 -127.5q90 0 186 45.5t159.5 138.5 t63.5 226q0 90 -45.5 186t-138.5 159.5t-225 63.5q-98 0 -193 -49t-156 -142.5t-61 -217.5zM324 819v656h196q24 0 62.5 -9.5t70 -37.5t31.5 -78v-105q0 -88 -45 -108l41 -318h-143l-33 287h-41v-287h-139zM463 1221q40 0 61 8.5t21 36.5v43q0 27 -19.5 37.5t-62.5 13.5 v-139z" />
<glyph unicode="&#xaf;" d="M0 1724v174h1024v-174h-1024z" />
<glyph unicode="&#xb0;" horiz-adv-x="369" d="M4 1499q2 57 42 103.5t112 46.5q34 0 69.5 -16t59.5 -51t24 -83q0 -58 -43.5 -108t-109.5 -50q-53 0 -103.5 43t-50.5 115zM57 1501q0 -53 30 -77.5t71 -24.5q48 0 73 28.5t25 73.5q-2 94 -98 94q-97 0 -101 -94z" />
<glyph unicode="&#xb1;" horiz-adv-x="1016" d="M63 -2v82h887v-82h-887zM80 651l2 111h385v389h104v-389h387v-111h-391v-387h-100v387h-387z" />
<glyph unicode="&#xb2;" horiz-adv-x="512" d="M8 844q14 240 203 397q29 23 45.5 48.5t22.5 64t6 102.5q0 32 -15 48t-37 16q-19 -2 -34 -19t-15 -47q-2 -22 -2 -119h-174v133q0 54 30 98.5t81 70.5t114 26q62 0 114 -26t82 -70.5t30 -98.5v-96q0 -51 -31.5 -97t-109 -138.5t-109.5 -149.5h250v-143h-451z" />
<glyph unicode="&#xb3;" horiz-adv-x="512" d="M4 1010v123h174v-107q0 -22 13 -45t38 -23q22 0 35.5 12t16.5 50v102q-3 42 -14 58t-38.5 20t-101.5 4v123q58 0 91 4t48 17t15 41v55q-2 22 -16.5 39.5t-35.5 17.5q-19 0 -34.5 -15.5t-16.5 -43.5v-53h-174l2 71q1 58 34.5 99t85 64.5t101.5 23.5q59 0 112 -26.5 t84.5 -74t31.5 -106.5q0 -50 -16 -96.5t-46 -77.5q22 -11 42 -49.5t20 -77.5v-129q0 -50 -28.5 -95.5t-80 -72.5t-117.5 -27q-81 0 -153 50t-72 145z" />
<glyph unicode="&#xb4;" horiz-adv-x="512" d="M12 1098l172 544h262l-270 -544h-164z" />
<glyph unicode="&#xb5;" horiz-adv-x="1311" d="M2 -373q0 35 33.5 162t40.5 211v1155h194v-795q0 -124 60 -183.5t151 -59.5q70 0 138 32.5t110.5 88t42.5 120.5v797h191l-2 -917q7 -51 15 -83.5t34 -60.5t77 -28q40 0 75 30.5t61 132.5h41q-16 -132 -97.5 -202t-191.5 -70q-85 6 -145 67t-64 162q-182 -194 -340 -221 q-28 -4 -41 -4q-132 0 -238 137v-106q0 -46 10.5 -86t40.5 -138t31 -126q0 -57 -28 -104.5t-88 -47.5q-57 3 -81.5 45.5t-29.5 91.5z" />
<glyph unicode="&#xb6;" horiz-adv-x="983" d="M0 1104q0 57 21 123.5t64 123t110.5 92.5t154.5 36h537v-103h-101v-1620h-192v1620h-152v-1620h-190v977q-244 95 -252 371z" />
<glyph unicode="&#xb8;" horiz-adv-x="512" d="M8 -420l113 101q10 -19 36 -38.5t64 -19.5q79 16 84 88q0 60 -52 77t-132 17v191h266v-131q92 -75 92 -148q0 -86 -74.5 -150.5t-173.5 -72.5q-78 0 -129 21.5t-94 64.5z" />
<glyph unicode="&#xb9;" horiz-adv-x="358" d="M6 1434v120q87 29 137 84h138v-819h-170v637q-64 -22 -105 -22z" />
<glyph unicode="&#xba;" horiz-adv-x="573" d="M0 502v215h492v-215h-492zM0 1036v369q0 90 67.5 161.5t178.5 71.5q50 0 108 -23.5t99 -76t41 -133.5v-369q0 -89 -68 -161t-180 -72q-53 0 -110 23.5t-96.5 75.5t-39.5 134zM197 1016q0 -88 53 -88q18 0 31.5 27.5t13.5 60.5v379q0 108 -55 108q-26 0 -34.5 -23 t-8.5 -85v-379z" />
<glyph unicode="&#xbb;" horiz-adv-x="1516" d="M0 135v225l512 316l-512 307v225l696 -409v-246zM696 135v225l512 316l-512 307v225l697 -409v-246z" />
<glyph unicode="&#xbc;" horiz-adv-x="1501" d="M2 1188v145q112 31 178 101h180v-983h-223v763q-80 -26 -135 -26zM119 -61l1024 1556h143l-1024 -1556h-143zM838 147v172l231 664h301v-664h66v-172h-66v-147h-213v147h-319zM1036 319h121v369z" />
<glyph unicode="&#xbd;" horiz-adv-x="1501" d="M2 1188v145q112 31 178 101h180v-983h-223v763q-80 -26 -135 -26zM119 -61l1024 1556h143l-1024 -1556h-143zM842 0q7 109 43.5 195t84 147t87.5 95.5t47 39.5q41 32 61 59.5t27.5 71.5t7.5 125q0 38 -20 58t-47 20q-26 -2 -45 -22.5t-19 -55.5q-2 -28 -2 -143h-225v160 q0 99 85 166t208 67q80 0 146.5 -30.5t106 -83.5t39.5 -119v-117q0 -61 -38 -112t-141 -165t-148 -186l327 2v-172h-585z" />
<glyph unicode="&#xbe;" horiz-adv-x="1741" d="M6 680v147h225v-129q0 -28 18 -54t50 -26q28 0 45 13.5t18 60.5q3 27 3 123q-3 69 -35.5 83.5t-163.5 14.5v148q114 0 156.5 12.5t42.5 59.5q0 51 -3 65q-2 29 -18.5 50.5t-44.5 21.5q-15 0 -30.5 -8t-25.5 -23.5t-12 -40.5v-63h-225v86q1 64 45.5 116t110.5 79.5 t133 27.5q77 0 144.5 -32t110 -88.5t42.5 -127.5q0 -56 -20 -113.5t-60 -95.5q29 -15 54.5 -60.5t25.5 -92.5v-154q0 -60 -37 -114t-104 -87t-152 -33q-107 0 -200 61t-93 173zM358 -61l1024 1556h144l-1024 -1556h-144zM1077 147v172l232 664h301v-664h65v-172h-65v-147 h-213v147h-320zM1276 319h121v369z" />
<glyph unicode="&#xbf;" horiz-adv-x="922" d="M10 -188q0 18 4 170q3 78 21.5 110.5t83.5 93.5q75 72 120 115t67 70.5t22 48.5v139h334l-3 -162q-1 -74 -67 -153t-170 -170q-22 -18 -56.5 -59.5t-37.5 -90.5q-4 -74 -4 -94q0 -83 21 -116t73 -33q46 5 77 34t31 121v164h305l3 -170q0 -122 -33 -216.5t-91 -158.5 t-133 -95.5t-159 -33.5q-99 0 -184 34.5t-144.5 116t-73.5 214.5q0 15 -3 57t-3 64zM317 651v348h349v-348h-349z" />
<glyph unicode="&#xc0;" d="M0 0l184 1638h533l194 -1638h-368l-21 246h-135l-18 -246h-369zM102 2241h263l172 -545h-164zM397 512h111l-57 666z" />
<glyph unicode="&#xc1;" d="M0 0l184 1638h533l194 -1638h-368l-21 246h-135l-18 -246h-369zM360 1675l172 545h263l-271 -545h-164zM397 512h111l-57 666z" />
<glyph unicode="&#xc2;" d="M0 0l184 1638h533l194 -1638h-368l-21 246h-135l-18 -246h-369zM145 1720l246 328h164l248 -328l-199 -2l-131 166l-123 -166zM397 512h111l-57 666z" />
<glyph unicode="&#xc3;" d="M0 0l184 1638h533l194 -1638h-368l-21 246h-135l-18 -246h-369zM78 1901q102 51 184 51q54 0 162 -25.5t178 -25.5q72 10 148 65l73 -201q-77 -52 -151 -65q-34 -6 -66 -6q-54 0 -149.5 23t-137.5 26q-104 0 -167 -43zM397 512h111l-57 666z" />
<glyph unicode="&#xc4;" d="M0 0l184 1638h533l194 -1638h-368l-21 246h-135l-18 -246h-369zM123 1751v205h205v-203zM397 512h111l-57 666zM582 1753v203h198l2 -203h-200z" />
<glyph unicode="&#xc5;" d="M0 0l184 1638h533l194 -1638h-368l-21 246h-135l-18 -246h-369zM319 1896q4 58 42.5 104t111.5 46q58 0 106 -38.5t48 -111.5q0 -59 -43 -108t-111 -49q-53 0 -103.5 42t-50.5 115zM373 1898q0 -54 30 -78t70 -24q50 0 74 28.5t24 73.5q-2 95 -98 95t-100 -95zM397 512 h111l-57 666z" />
<glyph unicode="&#xc6;" horiz-adv-x="1352" d="M0 0l287 1638h942v-286h-369v-287h369v-287h-369v-491h369v-287h-717v246h-135l-49 -246h-328zM397 512h115v666z" />
<glyph unicode="&#xc7;" d="M0 389v860q0 129 63.5 222t167 139.5t220.5 46.5q89 0 167.5 -25.5t143 -76.5t102 -129t37.5 -177v-266h-348v229q0 59 -25 109.5t-77 50.5q-46 0 -70 -35.5t-33 -128.5v-788q0 -47 26 -90t77 -43q39 0 69 33t33 90v286h348v-307q0 -100 -56.5 -190t-160.5 -144.5 t-233 -54.5q-98 0 -204 42.5t-176.5 131.5t-70.5 215zM193 -375l112 101q10 -19 36 -38.5t65 -19.5q78 17 83 88q0 60 -52 77t-132 17v191h266v-131q93 -75 93 -148q0 -86 -74.5 -150.5t-173.5 -72.5q-80 0 -130 21.5t-93 64.5z" />
<glyph unicode="&#xc8;" horiz-adv-x="881" d="M0 0v1638h717v-286h-369v-287h369v-287h-369v-491h369v-287h-717zM109 2017h266l246 -327l-205 -2z" />
<glyph unicode="&#xc9;" horiz-adv-x="881" d="M0 0v1638h717v-286h-369v-287h369v-287h-369v-491h369v-287h-717zM121 1690l246 327h266l-307 -329z" />
<glyph unicode="&#xca;" horiz-adv-x="881" d="M0 0v1638h717v-286h-369v-287h369v-287h-369v-491h369v-287h-717zM20 1690l246 327h164l248 -327l-199 -2l-131 165l-123 -165z" />
<glyph unicode="&#xcb;" horiz-adv-x="881" d="M0 0v1638h717v-286h-369v-287h369v-287h-369v-491h369v-287h-717zM49 1690v204h205v-206zM508 1688v206h199v-204z" />
<glyph unicode="&#xcc;" horiz-adv-x="645" d="M0 2017h266l246 -327l-205 -2zM102 0v1638h349v-1638h-349z" />
<glyph unicode="&#xcd;" horiz-adv-x="584" d="M0 1690l246 327h266l-307 -329zM82 0v1638h348v-1638h-348z" />
<glyph unicode="&#xce;" horiz-adv-x="727" d="M0 1690l246 327h164l247 -327l-198 -2l-131 165l-123 -165zM143 0v1638h349v-1638h-349z" />
<glyph unicode="&#xcf;" horiz-adv-x="768" d="M2 1690v204h205v-206zM143 0v1638h349v-1638h-349zM461 1688v206h198v-204z" />
<glyph unicode="&#xd0;" />
<glyph unicode="&#xd1;" horiz-adv-x="1044" d="M0 0v1638h348l246 -573v573h287v-1638h-287l-246 778v-778h-348zM70 1890q20 13 41 23q18 10 39 18q32 15 69 23q35 6 80 8h14q29 0 54 -6q30 -10 59 -21q4 -2 8 -2q2 -2 6 -4q27 -10 58 -18q30 -10 69 -13q33 0 59.5 6.5t53.5 18.5q14 6 31 14q14 9 30 19l74 -201 q-22 -12 -43 -22q-22 -13 -45 -19q-31 -12 -65.5 -18t-75.5 -6q-45 0 -80 10t-68 22l-8 4q-6 3 -12 5q-23 10 -47.5 16t-53.5 8h-14q-29 0 -51 -6q-29 -10 -57 -27q-13 -6 -25 -14q-12 -10 -27 -18z" />
<glyph unicode="&#xd2;" horiz-adv-x="1065" d="M0 389v860q0 176 137 293t314 117q176 0 313 -117t137 -293v-860q0 -172 -139 -280.5t-311 -108.5t-312 109q-139 108 -139 280zM221 2017h266l246 -327l-205 -2zM348 403q4 -43 33 -79q27 -37 70 -37q47 0 73 39q27 39 29 84v4v2v796v19q-2 8 -2 16q-6 47 -31 86 q-24 39 -69 39q-48 0 -70 -39q-25 -41 -31 -90v-16q-2 -10 -2 -19v-788v-8v-9z" />
<glyph unicode="&#xd3;" horiz-adv-x="1065" d="M0 389v860q0 176 137 293t314 117q176 0 313 -117t137 -293v-860q0 -172 -139 -280.5t-311 -108.5t-312 109q-139 108 -139 280zM172 1690l246 327h266l-307 -329zM348 403q4 -43 33 -79q27 -37 70 -37q47 0 73 39q27 39 29 84v4v2v796v19q-2 8 -2 16q-6 47 -31 86 q-24 39 -69 39q-48 0 -70 -39q-25 -41 -31 -90v-16q-2 -10 -2 -19v-788v-8v-9z" />
<glyph unicode="&#xd4;" horiz-adv-x="1065" d="M0 389v860q0 176 137 293t314 117q176 0 313 -117t137 -293v-860q0 -172 -139 -280.5t-311 -108.5t-312 109q-139 108 -139 280zM133 1690l246 327h164l248 -327l-199 -2l-131 165l-123 -165zM348 403q4 -43 33 -79q27 -37 70 -37q47 0 73 39q27 39 29 84v4v2v796v19 q-2 8 -2 16q-6 47 -31 86q-24 39 -69 39q-48 0 -70 -39q-25 -41 -31 -90v-16q-2 -10 -2 -19v-788v-8v-9z" />
<glyph unicode="&#xd5;" horiz-adv-x="1065" d="M0 389v860q0 176 137 293t314 117q176 0 313 -117t137 -293v-860q0 -172 -139 -280.5t-311 -108.5t-312 109q-139 108 -139 280zM90 1890q21 13 40.5 23t39.5 18q33 15 70 23q34 6 79 8h15q28 0 53 -6q31 -10 59 -21q5 -2 9 -2q2 -2 6 -4q26 -10 57 -18q31 -10 70 -13 q33 0 59 7q27 6 53 18q15 6 31 14q14 9 31 19l74 -201q-23 -12 -43 -22q-23 -13 -45 -19q-31 -12 -66 -18t-76 -6q-45 0 -80 10q-34 10 -67 22l-8 4q-7 3 -13 5q-22 10 -47 16q-24 6 -53 8h-14q-29 0 -52 -6q-28 -10 -57 -27q-12 -6 -25 -14q-12 -10 -26 -18zM348 403 q4 -43 33 -79q27 -37 70 -37q47 0 73 39q27 39 29 84v4v2v796v19q-2 8 -2 16q-6 47 -31 86q-24 39 -69 39q-48 0 -70 -39q-25 -41 -31 -90v-16q-2 -10 -2 -19v-788v-8v-9z" />
<glyph unicode="&#xd6;" horiz-adv-x="1065" d="M0 389v860q0 176 137 293t314 117q176 0 313 -117t137 -293v-860q0 -172 -139 -280.5t-311 -108.5t-312 109q-139 108 -139 280zM131 1690v204h205v-206zM348 403q4 -43 33 -79q27 -37 70 -37q47 0 73 39q27 39 29 84v4v2v796v19q-2 8 -2 16q-6 47 -31 86q-24 39 -69 39 q-48 0 -70 -39q-25 -41 -31 -90v-16q-2 -10 -2 -19v-788v-8v-9zM590 1688v206h198v-204z" />
<glyph unicode="&#xd7;" horiz-adv-x="1393" d="M-4 1081l254 222l409 -328l369 348l250 -213l-348 -356l397 -373l-205 -221l-430 368l-397 -385l-279 222l402 372z" />
<glyph unicode="&#xd8;" horiz-adv-x="1065" d="M0 0l78 164l-8 12q-7 6 -11 14q-10 15 -18 31q-10 17 -16 37q-7 16 -11 31q-4 12 -6 26q-4 17 -6 34.5t-2 39.5v860q0 176 137 293q137 115 314 117q57 0 106 -8q47 -11 92 -33q17 -8 33 -19q16 -10 35 -22l31 59h194l-90 -194q4 -10 8 -19.5t8 -17.5q4 -12 8.5 -23.5 t8.5 -25.5q4 -15 8 -25q2 -12 4 -24.5t4 -26.5v-31v-860q0 -172 -139 -278.5t-311 -110.5q-48 0 -86 6q-41 4 -80 17q-21 8 -41 18q-21 8 -43 20l-27 -61h-174zM348 354q0 -28 25 -45q24 -16 53 -20h12q6 -2 13 -2h12t12 2q29 4 53 18q25 15 25 43v27v430l-205 -422v-31z M348 766l205 446v29v8v6q-6 45 -33 82q-26 35 -65 35h-4q-48 -2 -70 -41q-25 -41 -31 -90q-2 -8 -2 -16v-17v-442z" />
<glyph unicode="&#xd9;" horiz-adv-x="1065" d="M0 420v1218h348v-1228q0 -45 29 -84t74 -39t73 37q29 36 29 82v1232h348v-1218q0 -178 -135 -299q-137 -121 -315 -121q-179 0 -314 121q-137 121 -137 299zM221 2017h266l246 -327l-205 -2z" />
<glyph unicode="&#xda;" horiz-adv-x="1065" d="M0 420v1218h348v-1228q0 -45 29 -84t74 -39t73 37q29 36 29 82v1232h348v-1218q0 -178 -135 -299q-137 -121 -315 -121q-179 0 -314 121q-137 121 -137 299zM203 1690l246 327h266l-307 -329z" />
<glyph unicode="&#xdb;" horiz-adv-x="1065" d="M0 420v1218h348v-1228q0 -45 29 -84t74 -39t73 37q29 36 29 82v1232h348v-1218q0 -178 -135 -299q-137 -121 -315 -121q-179 0 -314 121q-137 121 -137 299zM133 1690l246 327h164l248 -327l-199 -2l-131 165l-123 -165z" />
<glyph unicode="&#xdc;" horiz-adv-x="1065" d="M0 420v1218h348v-1228q0 -45 29 -84t74 -39t73 37q29 36 29 82v1232h348v-1218q0 -178 -135 -299q-137 -121 -315 -121q-179 0 -314 121q-137 121 -137 299zM131 1690v204h205v-206zM590 1688v206h198v-204z" />
<glyph unicode="&#xdd;" d="M0 1638h369l102 -430l102 430h369l-297 -1106v-532h-348v532zM381 1712l172 545h262l-270 -545h-164z" />
<glyph unicode="&#xde;" horiz-adv-x="717" d="M0 1233h262v-217q6 9 23 27.5t49.5 36.5t75.5 18q86 0 141.5 -43.5t79.5 -109t24 -126.5v-557q0 -42 -13.5 -91.5t-42.5 -91t-77 -67.5t-112 -26q-80 0 -148 80l4 -259h-262zM260 258q0 -24 16.5 -59t53.5 -35h2q28 0 43.5 17.5t15.5 76.5l2 524q0 70 -13 103t-52 33 q-30 0 -48 -23.5t-18 -112.5z" />
<glyph unicode="&#xdf;" horiz-adv-x="1106" d="M102 0v1249q0 176 137.5 293t313.5 117t313 -117q138 -117 138 -293v-82q0 -24 -3 -47q-4 -22 -10 -43q-2 -12 -6 -24q-6 -15 -12 -29q-15 -33 -31 -57.5t-41 -46.5q-4 -5 -8 -9q-6 -6 -12 -10q32 -22 55 -49q20 -27 37 -64q6 -14 12 -26q4 -14 8 -27q6 -20 8 -43 q3 -22 3 -47v-256q0 -90 -37 -156q-39 -67 -107 -127q-4 -4 -8 -6l-6 -6q-66 -53 -135 -74q-64 -20 -142 -20h-16v287q22 4 41 16q18 10 32.5 28.5t22.5 39.5q6 20 6 45v198q0 29 -4 54q-4 22 -16 45l-4 8q-4 2 -6 6q-17 23 -35.5 37t-46.5 14h-51v246h51q22 0 41 14 q16 13 30 27q17 16 29 37q12 18 12 43v84v10v10q-6 45 -30 84q-27 39 -72 39t-70.5 -39t-31.5 -84v-10v-10v-1229h-349z" />
<glyph unicode="&#xe0;" horiz-adv-x="983" d="M0 287v164q0 28 2 53q2 22 4 45q4 18 10 39q4 18 11 39q41 123 139 180q96 55 217 96l20 8q9 2 19 7l70 24v111q0 30 -17 57q-18 25 -49 27h-4q-31 0 -51 -25q-23 -27 -23 -59v-70h-297v82q0 137 111 219q110 80 248 88h16h16q142 0 260 -82q117 -84 117 -225v-1065h-327 v82q-46 -57 -103 -80q-51 -20 -113 -20h-20q-115 8 -184 100q-72 90 -72 205zM201 1802h266l246 -327l-205 -2zM328 340q4 -51 18 -92q12 -43 53 -43h4h3h2h2q49 6 65 51q14 45 17 98v25v24v5v2v286q-21 -4 -37 -10q-19 -8 -37 -18l-8 -4q-4 -5 -9 -9q-32 -26 -53 -57 q-20 -33 -20 -76v-112v-2v-5v-30v-33z" />
<glyph unicode="&#xe1;" horiz-adv-x="983" d="M0 287v164q0 28 2 53q2 22 4 45q4 18 10 39q4 18 11 39q41 123 139 180q96 55 217 96l20 8q9 2 19 7l70 24v111q0 30 -17 57q-18 25 -49 27h-4q-31 0 -51 -25q-23 -27 -23 -59v-70h-297v82q0 137 111 219q110 80 248 88h16h16q142 0 260 -82q117 -84 117 -225v-1065h-327 v82q-46 -57 -103 -80q-51 -20 -113 -20h-20q-115 8 -184 100q-72 90 -72 205zM233 1475l246 327h266l-307 -329zM328 340q4 -51 18 -92q12 -43 53 -43h4h3h2h2q49 6 65 51q14 45 17 98v25v24v5v2v286q-21 -4 -37 -10q-19 -8 -37 -18l-8 -4q-4 -5 -9 -9q-32 -26 -53 -57 q-20 -33 -20 -76v-112v-2v-5v-30v-33z" />
<glyph unicode="&#xe2;" horiz-adv-x="983" d="M0 287v164q0 28 2 53q2 22 4 45q4 18 10 39q4 18 11 39q41 123 139 180q96 55 217 96l20 8q9 2 19 7l70 24v111q0 30 -17 57q-18 25 -49 27h-4q-31 0 -51 -25q-23 -27 -23 -59v-70h-297v82q0 137 111 219q110 80 248 88h16h16q142 0 260 -82q117 -84 117 -225v-1065h-327 v82q-46 -57 -103 -80q-51 -20 -113 -20h-20q-115 8 -184 100q-72 90 -72 205zM121 1475l246 327h163l248 -327l-198 -2l-131 165l-123 -165zM328 340q4 -51 18 -92q12 -43 53 -43h4h3h2h2q49 6 65 51q14 45 17 98v25v24v5v2v286q-21 -4 -37 -10q-19 -8 -37 -18l-8 -4 q-4 -5 -9 -9q-32 -26 -53 -57q-20 -33 -20 -76v-112v-2v-5v-30v-33z" />
<glyph unicode="&#xe3;" horiz-adv-x="983" d="M0 287v164q0 28 2 53q2 22 4 45q4 18 10 39q4 18 11 39q41 123 139 180q96 55 217 96l20 8q9 2 19 7l70 24v111q0 30 -17 57q-18 25 -49 27h-4q-31 0 -51 -25q-23 -27 -23 -59v-70h-297v82q0 137 111 219q110 80 248 88h16h16q142 0 260 -82q117 -84 117 -225v-1065h-327 v82q-46 -57 -103 -80q-51 -20 -113 -20h-20q-115 8 -184 100q-72 90 -72 205zM41 1638q20 13 41 23q18 10 39 18q33 15 69 23q35 6 80 8h15q28 0 53 -6q31 -10 59 -21q4 -2 9 -2q2 -2 6 -4q26 -10 57 -18q31 -10 70 -12q32 0 59 6t53 18q15 6 31 15q14 8 31 18l73 -201 q-22 -12 -43 -22q-22 -13 -45 -19q-30 -12 -65 -18t-76 -6q-45 0 -80 10t-67 22q-4 3 -9.5 5t-11.5 4q-22 10 -47 16t-53 8h-15q-28 0 -51 -6q-28 -10 -57 -27q-12 -6 -25 -14q-12 -10 -26 -18zM328 340q4 -51 18 -92q12 -43 53 -43h4h3h2h2q49 6 65 51q14 45 17 98v25v24v5 v2v286q-21 -4 -37 -10q-19 -8 -37 -18l-8 -4q-4 -5 -9 -9q-32 -26 -53 -57q-20 -33 -20 -76v-112v-2v-5v-30v-33z" />
<glyph unicode="&#xe4;" horiz-adv-x="983" d="M0 287v164q0 28 2 53q2 22 4 45q4 18 10 39q4 18 11 39q41 123 139 180q96 55 217 96l20 8q9 2 19 7l70 24v111q0 30 -17 57q-18 25 -49 27h-4q-31 0 -51 -25q-23 -27 -23 -59v-70h-297v82q0 137 111 219q110 80 248 88h16h16q142 0 260 -82q117 -84 117 -225v-1065h-327 v82q-46 -57 -103 -80q-51 -20 -113 -20h-20q-115 8 -184 100q-72 90 -72 205zM121 1475v204h205v-206zM328 340q4 -51 18 -92q12 -43 53 -43h4h3h2h2q49 6 65 51q14 45 17 98v25v24v5v2v286q-21 -4 -37 -10q-19 -8 -37 -18l-8 -4q-4 -5 -9 -9q-32 -26 -53 -57 q-20 -33 -20 -76v-112v-2v-5v-30v-33zM580 1473v206h198v-204z" />
<glyph unicode="&#xe5;" horiz-adv-x="983" d="M0 287v164q0 28 2 53q2 22 4 45q4 18 10 39q4 18 11 39q41 123 139 180q96 55 217 96l20 8q9 2 19 7l70 24v111q0 30 -17 57q-18 25 -49 27h-4q-31 0 -51 -25q-23 -27 -23 -59v-70h-297v82q0 137 111 219q110 80 248 88h16h16q142 0 260 -82q117 -84 117 -225v-1065h-327 v82q-46 -57 -103 -80q-51 -20 -113 -20h-20q-115 8 -184 100q-72 90 -72 205zM225 1669q0 84 62 146q61 59 143 59q84 0 145 -59q60 -62 60 -146q0 -82 -60.5 -143.5t-144.5 -61.5q-82 0 -143.5 61.5t-61.5 143.5zM328 340q4 -51 18 -92q12 -43 53 -43h4h3h2h2q49 6 65 51 q14 45 17 98v25v24v5v2v286q-21 -4 -37 -10q-19 -8 -37 -18l-8 -4q-4 -5 -9 -9q-32 -26 -53 -57q-20 -33 -20 -76v-112v-2v-5v-30v-33zM330 1669q0 -39 30 -70q31 -30 70 -30q41 0 72 30q28 31 28 70q0 41 -28 72q-31 28 -72 28q-39 0 -70 -28q-30 -31 -30 -72z" />
<glyph unicode="&#xe6;" horiz-adv-x="1464" d="M0 287v164q0 28 2 53q2 22 4 45q4 18 10 39q4 18 11 39q41 123 139 180q96 55 217 96l20 8q9 2 19 7l70 24v111q0 30 -17 57q-18 25 -49 27h-4q-31 0 -51 -25q-23 -27 -23 -59v-70h-297v82q0 137 110.5 217t248.5 90q22 2 43 2q30 0 57 -4q43 -6 86 -24q18 -9 37 -19 q18 -12 39 -24q18 12 37 22l32 16q37 17 76 25q37 6 84 6q164 0 287 -112.5t123 -276.5v-348h-492v-236v-2v-4v-26v-31q2 -53 19 -96q14 -45 63 -45t66 45q14 43 16 96v31v26v4v2v133h328v-163q0 -162 -123 -275q-121 -112 -283 -112h-4q-20 0 -37.5 2t-34.5 6q-12 2 -24 6 q-12 2 -27 4h-286v82q-46 -57 -103 -80q-51 -20 -113 -20h-20q-115 8 -184 100q-72 90 -72 205zM328 340q4 -51 18 -92q12 -43 53 -43h4h3h2h2q49 6 65 51q14 45 17 98v25v24v5v2v286q-21 -4 -37 -10q-19 -8 -37 -18l-8 -4q-4 -5 -9 -9q-32 -26 -53 -57q-20 -33 -20 -76 v-112v-2v-5v-30v-33zM819 891h164v41v4v2v29v28q-2 54 -16 99q-17 43 -66 43t-63 -43q-17 -45 -19 -99v-28v-29v-2v-4v-41z" />
<glyph unicode="&#xe7;" horiz-adv-x="778" d="M0 293v645q0 96 48 165.5t125 104.5t165 35q89 0 166 -35t124.5 -104.5t47.5 -165.5v-201h-260v172q0 44 -19 82.5t-59 38.5q-33 0 -51.5 -27t-24.5 -96v-592q0 -35 20 -67.5t56 -32.5q29 0 52 25.5t26 66.5v215h260v-229q0 -64 -30 -122t-87 -101t-131 -60v-78 q70 -55 70 -110q0 -44 -26 -81t-68 -59.5t-93 -27.5q-103 0 -166 65l84 74q25 -43 76 -43q60 17 62 68q0 45 -37.5 57t-100.5 12v129q-98 31 -163.5 100.5t-65.5 176.5z" />
<glyph unicode="&#xe8;" horiz-adv-x="983" d="M0 369v614q0 164 125 277q123 112 285 112q163 0 286 -112.5t123 -276.5v-348h-491v-236v-2v-4v-26v-31q2 -53 18 -96q14 -45 64 -45q49 0 65 45q14 43 17 96v31v26v4v2v133h327v-163q0 -162 -123 -275q-123 -112 -286 -112q-162 0 -285 112q-125 113 -125 275zM201 1802 h266l246 -327l-205 -2zM328 891h164v41v4v2v29v28q-3 54 -17 99q-16 43 -65 43q-50 0 -64 -43q-16 -45 -18 -99v-28v-29v-2v-4v-41z" />
<glyph unicode="&#xe9;" horiz-adv-x="983" d="M0 369v614q0 164 125 277q123 112 285 112q163 0 286 -112.5t123 -276.5v-348h-491v-236v-2v-4v-26v-31q2 -53 18 -96q14 -45 64 -45q49 0 65 45q14 43 17 96v31v26v4v2v133h327v-163q0 -162 -123 -275q-123 -112 -286 -112q-162 0 -285 112q-125 113 -125 275zM233 1475 l246 327h266l-307 -329zM328 891h164v41v4v2v29v28q-3 54 -17 99q-16 43 -65 43q-50 0 -64 -43q-16 -45 -18 -99v-28v-29v-2v-4v-41z" />
<glyph unicode="&#xea;" horiz-adv-x="983" d="M0 369v614q0 164 125 277q123 112 285 112q163 0 286 -112.5t123 -276.5v-348h-491v-236v-2v-4v-26v-31q2 -53 18 -96q14 -45 64 -45q49 0 65 45q14 43 17 96v31v26v4v2v133h327v-163q0 -162 -123 -275q-123 -112 -286 -112q-162 0 -285 112q-125 113 -125 275zM70 1475 l245 327h164l248 -327l-199 -2l-131 165l-123 -165zM328 891h164v41v4v2v29v28q-3 54 -17 99q-16 43 -65 43q-50 0 -64 -43q-16 -45 -18 -99v-28v-29v-2v-4v-41z" />
<glyph unicode="&#xeb;" horiz-adv-x="983" d="M0 369v614q0 164 125 277q123 112 285 112q163 0 286 -112.5t123 -276.5v-348h-491v-236v-2v-4v-26v-31q2 -53 18 -96q14 -45 64 -45q49 0 65 45q14 43 17 96v31v26v4v2v133h327v-163q0 -162 -123 -275q-123 -112 -286 -112q-162 0 -285 112q-125 113 -125 275zM100 1475 v204h205v-206zM328 891h164v41v4v2v29v28q-3 54 -17 99q-16 43 -65 43q-50 0 -64 -43q-16 -45 -18 -99v-28v-29v-2v-4v-41zM559 1473v206h199v-204z" />
<glyph unicode="&#xec;" horiz-adv-x="594" d="M0 1802h266l246 -327l-205 -2zM92 0v1352h328v-1352h-328z" />
<glyph unicode="&#xed;" horiz-adv-x="584" d="M0 1475l246 327h266l-307 -329zM82 0v1352h328v-1352h-328z" />
<glyph unicode="&#xee;" horiz-adv-x="819" d="M0 1475l246 327h164l247 -327l-198 -2l-131 165l-123 -165zM154 0v1352h327v-1352h-327z" />
<glyph unicode="&#xef;" horiz-adv-x="748" d="M0 1475v204h205v-206zM154 0v1352h327v-1352h-327zM459 1473v206h198v-204z" />
<glyph unicode="&#xf0;" />
<glyph unicode="&#xf1;" horiz-adv-x="983" d="M0 0v1352h328v-82q37 47 82 73q43 27 102 29h23q143 0 210 -100q72 -111 74 -242v-2v-4v-1024h-327v942v4v2v29v29q-3 53 -17 98q-16 43 -65 43q-50 0 -64 -43q-16 -45 -18 -98v-29v-29v-2v-4v-942h-328zM41 1638q20 13 41 23q18 10 39 18q33 15 69 23q35 6 80 8h15 q28 0 53 -6q31 -10 59 -21q4 -2 9 -2q2 -2 6 -4q26 -10 57 -18q31 -10 70 -12q32 0 59 6t53 18q15 6 31 15q14 8 31 18l73 -201q-22 -12 -43 -22q-22 -13 -45 -19q-30 -12 -65 -18t-76 -6q-45 0 -80 10t-67 22q-4 3 -9.5 5t-11.5 4q-22 10 -47 16t-53 8h-15q-28 0 -51 -6 q-28 -10 -57 -27q-12 -6 -25 -14q-12 -10 -26 -18z" />
<glyph unicode="&#xf2;" horiz-adv-x="983" d="M0 369v614q0 164 125 277q123 112 285 112q163 0 286 -112.5t123 -276.5v-614q0 -162 -123 -275q-123 -112 -286 -112q-162 0 -285 112q-125 113 -125 275zM201 1802h266l246 -327l-205 -2zM328 336q2 -53 18 -96q14 -45 64 -45q49 0 65 45q14 43 17 96v31v26v4v2v533v4 v2v29v28q-3 54 -17 99q-16 43 -65 43q-50 0 -64 -43q-16 -45 -18 -99v-28v-29v-2v-4v-533v-2v-4v-26v-31z" />
<glyph unicode="&#xf3;" horiz-adv-x="983" d="M0 369v614q0 164 125 277q123 112 285 112q163 0 286 -112.5t123 -276.5v-614q0 -162 -123 -275q-123 -112 -286 -112q-162 0 -285 112q-125 113 -125 275zM233 1475l246 327h266l-307 -329zM328 336q2 -53 18 -96q14 -45 64 -45q49 0 65 45q14 43 17 96v31v26v4v2v533v4 v2v29v28q-3 54 -17 99q-16 43 -65 43q-50 0 -64 -43q-16 -45 -18 -99v-28v-29v-2v-4v-533v-2v-4v-26v-31z" />
<glyph unicode="&#xf4;" horiz-adv-x="983" d="M0 369v614q0 164 125 277q123 112 285 112q163 0 286 -112.5t123 -276.5v-614q0 -162 -123 -275q-123 -112 -286 -112q-162 0 -285 112q-125 113 -125 275zM80 1475l246 327h163l248 -327l-198 -2l-131 165l-123 -165zM328 336q2 -53 18 -96q14 -45 64 -45q49 0 65 45 q14 43 17 96v31v26v4v2v533v4v2v29v28q-3 54 -17 99q-16 43 -65 43q-50 0 -64 -43q-16 -45 -18 -99v-28v-29v-2v-4v-533v-2v-4v-26v-31z" />
<glyph unicode="&#xf5;" horiz-adv-x="983" d="M0 369v614q0 164 125 277q123 112 285 112q163 0 286 -112.5t123 -276.5v-614q0 -162 -123 -275q-123 -112 -286 -112q-162 0 -285 112q-125 113 -125 275zM41 1638q20 13 41 23q18 10 39 18q33 15 69 23q35 6 80 8h15q28 0 53 -6q31 -10 59 -21q4 -2 9 -2q2 -2 6 -4 q26 -10 57 -18q31 -10 70 -12q32 0 59 6t53 18q15 6 31 15q14 8 31 18l73 -201q-22 -12 -43 -22q-22 -13 -45 -19q-30 -12 -65 -18t-76 -6q-45 0 -80 10t-67 22q-4 3 -9.5 5t-11.5 4q-22 10 -47 16t-53 8h-15q-28 0 -51 -6q-28 -10 -57 -27q-12 -6 -25 -14q-12 -10 -26 -18z M328 336q2 -53 18 -96q14 -45 64 -45q49 0 65 45q14 43 17 96v31v26v4v2v533v4v2v29v28q-3 54 -17 99q-16 43 -65 43q-50 0 -64 -43q-16 -45 -18 -99v-28v-29v-2v-4v-533v-2v-4v-26v-31z" />
<glyph unicode="&#xf6;" horiz-adv-x="983" d="M0 369v614q0 164 125 277q123 112 285 112q163 0 286 -112.5t123 -276.5v-614q0 -162 -123 -275q-123 -112 -286 -112q-162 0 -285 112q-125 113 -125 275zM100 1475v204h205v-206zM328 336q2 -53 18 -96q14 -45 64 -45q49 0 65 45q14 43 17 96v31v26v4v2v533v4v2v29v28 q-3 54 -17 99q-16 43 -65 43q-50 0 -64 -43q-16 -45 -18 -99v-28v-29v-2v-4v-533v-2v-4v-26v-31zM559 1473v206h199v-204z" />
<glyph unicode="&#xf7;" horiz-adv-x="1016" d="M80 614l2 148h876v-148h-878zM446 264v232h150v-232h-150zM446 930v221h146v-221h-146z" />
<glyph unicode="&#xf8;" horiz-adv-x="952" d="M0 0l74 147q-4 7 -6 13q-5 4 -9 10q-10 16 -18 35q-10 16 -16 37q-7 14 -11 27.5t-6 25.5q-4 16 -6 34.5t-2 39.5v614q0 164 125 277q123 110 285 112q45 0 82 -6q34 -6 67 -18q19 -7 37 -15q18 -10 39 -22l31 49h163l-79 -164q6 -8 12 -14q4 -8 8 -15q6 -10 12 -18 q4 -10 9 -23q6 -14 10 -26q4 -15 8 -27q6 -20 8 -43q2 -22 2 -47v-614q0 -162 -123 -275q-123 -112 -286 -112q-43 0 -80 6t-72 18q-16 8 -33 19q-18 8 -37 20l-24 -45h-164zM328 299q0 -37 24 -66q23 -28 58 -38q4 -2 8 -2h6q37 0 51 40q12 41 14 93q3 18 3 39v34v277 l-164 -332v-45zM328 676l159 332v20v8v6q-4 35 -22 66q-21 29 -55 29q-41 0 -58 -43q-18 -45 -22 -99q-2 -16 -2 -32v-31v-256z" />
<glyph unicode="&#xf9;" horiz-adv-x="983" d="M0 328v1024h328v-942v-2v-5v-26v-31q2 -53 18 -96q14 -45 64 -45q49 0 65 45q14 43 17 96v31v26v5v2v942h327v-1352h-327v82q-37 -45 -80 -74q-43 -26 -97 -26h-8q-155 8 -231 110q-76 103 -76 236zM190 1802h267l245 -327l-204 -2z" />
<glyph unicode="&#xfa;" horiz-adv-x="983" d="M0 328v1024h328v-942v-2v-5v-26v-31q2 -53 18 -96q14 -45 64 -45q49 0 65 45q14 43 17 96v31v26v5v2v942h327v-1352h-327v82q-37 -45 -80 -74q-43 -26 -97 -26h-8q-155 8 -231 110q-76 103 -76 236zM203 1475l246 327h266l-307 -329z" />
<glyph unicode="&#xfb;" horiz-adv-x="973" d="M0 328v1024h328v-942v-2v-5v-26v-31q2 -53 18 -96q14 -45 64 -45q49 0 65 45q14 43 17 96v31v26v5v2v942h327v-1352h-327v82q-37 -45 -80 -74q-43 -26 -97 -26h-8q-155 8 -231 110q-76 103 -76 236zM80 1475l246 327h163l248 -327l-198 -2l-131 165l-123 -165z" />
<glyph unicode="&#xfc;" horiz-adv-x="983" d="M0 328v1024h328v-942v-2v-5v-26v-31q2 -53 18 -96q14 -45 64 -45q49 0 65 45q14 43 17 96v31v26v5v2v942h327v-1352h-327v82q-37 -45 -80 -74q-43 -26 -97 -26h-8q-155 8 -231 110q-76 103 -76 236zM80 1475v204h205v-206zM539 1473v206h198v-204z" />
<glyph unicode="&#xfd;" horiz-adv-x="942" d="M0 41h180q13 0 21 14.5t8 30.5l-209 1266h328l92 -758l92 758h328l-238 -1413q-7 -42 -53 -71.5t-94 -29.5l-455 2v201zM336 1454l172 545h262l-270 -545h-164z" />
<glyph unicode="&#xfe;" horiz-adv-x="942" d="M0 1638h328v-368q-1 -3 -2 -3.5t-2 -0.5q0 4 25.5 32t67 51t95.5 23q108 0 177 -54.5t99.5 -134t30.5 -159.5v-696q0 -80 -30.5 -159t-100 -133t-176.5 -54q-101 0 -184 100l4 -406h-328zM326 322q0 -33 20 -75t66 -42h2q35 0 55 20.5t20 96.5l3 655q0 87 -17 128.5 t-65 41.5q-39 0 -60.5 -28.5t-21.5 -141.5z" />
<glyph unicode="&#xff;" horiz-adv-x="993" d="M0 41h180q10 0 18.5 2t12.5 10l2 2v2v4v9q-2 2 -2 4v8q-2 2 -2 4l-209 1266h328l92 -758l92 758h328l-238 -1413q-2 -17 -8 -35q-8 -19 -21 -33q-20 -27 -51 -31q-22 -2 -45 -2h-22h-13h-12l-430 -2v205zM100 1475v204h205v-206zM559 1473v206h199v-204z" />
<glyph unicode="&#x152;" horiz-adv-x="1362" d="M0 389v860q0 70 28.5 140.5t87.5 130t143.5 94t191.5 35.5l102 -11h717v-286h-369v-287h369v-287h-369v-491h369v-287h-717l-102 -8q-72 2 -151.5 27t-145.5 72t-110 123t-44 175zM348 420q0 -46 25.5 -89.5t77.5 -43.5q40 0 71 33.5t31 89.5v802q0 59 -25 109.5 t-77 50.5q-103 0 -103 -164v-788z" />
<glyph unicode="&#x153;" horiz-adv-x="1413" d="M0 369v614q0 89 46 178.5t140 150t224 60.5q146 0 241 -82q76 50 126 66t124 16q91 0 186.5 -42t159.5 -129.5t64 -217.5v-348h-492v-299q8 -68 20.5 -104.5t61.5 -36.5q36 0 59 26.5t23 114.5v196h328v-163q0 -95 -50.5 -184t-144 -146t-215.5 -57q-69 0 -117.5 13.5 t-132.5 65.5q-4 -2 -25.5 -18t-50.5 -29.5t-69 -22.5t-96 -9q-87 0 -182 41.5t-161.5 129.5t-66.5 216zM328 336q13 -139 86 -139q30 0 54 38.5t24 100.5v659q-1 65 -25.5 103.5t-58.5 40.5q-31 0 -55.5 -36t-24.5 -108v-659zM819 891h164v104q-1 67 -26.5 104.5t-59.5 37.5 q-31 0 -54 -37t-24 -105v-104z" />
<glyph unicode="&#x178;" d="M0 1638h369l102 -430l102 430h369l-297 -1106v-532h-348v532zM156 1714v205h204v-203zM614 1716v203h199l2 -203h-201z" />
<glyph unicode="&#x2c6;" horiz-adv-x="901" d="M41 1638q101 52 184 52q54 0 160 -26t180 -26q73 11 148 66l73 -201q-74 -52 -151 -65q-34 -6 -66 -6q-54 0 -148 23t-138 26q-51 0 -91 -8.5t-77 -34.5z" />
<glyph unicode="&#x2dc;" horiz-adv-x="983" d="M121 1475l246 327h163l248 -327l-198 -2l-131 165l-123 -165z" />
<glyph unicode="&#x2000;" horiz-adv-x="1128" />
<glyph unicode="&#x2001;" horiz-adv-x="2257" />
<glyph unicode="&#x2002;" horiz-adv-x="1128" />
<glyph unicode="&#x2003;" horiz-adv-x="2257" />
<glyph unicode="&#x2004;" horiz-adv-x="752" />
<glyph unicode="&#x2005;" horiz-adv-x="564" />
<glyph unicode="&#x2006;" horiz-adv-x="376" />
<glyph unicode="&#x2007;" horiz-adv-x="376" />
<glyph unicode="&#x2008;" horiz-adv-x="282" />
<glyph unicode="&#x2009;" horiz-adv-x="451" />
<glyph unicode="&#x200a;" horiz-adv-x="125" />
<glyph unicode="&#x2010;" horiz-adv-x="614" d="M0 553v287h512v-287h-512z" />
<glyph unicode="&#x2011;" horiz-adv-x="614" d="M0 553v287h512v-287h-512z" />
<glyph unicode="&#x2012;" horiz-adv-x="614" d="M0 553v287h512v-287h-512z" />
<glyph unicode="&#x2013;" horiz-adv-x="512" d="M0 532v244h512v-244h-512z" />
<glyph unicode="&#x2014;" horiz-adv-x="1055" d="M0 778h1055l2 -246h-1055z" />
<glyph unicode="&#x2018;" horiz-adv-x="410" d="M-4 1081v349l164 194l92 -72l-113 -122h144v-349h-287z" />
<glyph unicode="&#x2019;" horiz-adv-x="410" d="M0 1290v348h287v-348l-164 -194l-92 71l112 123h-143z" />
<glyph unicode="&#x201a;" horiz-adv-x="410" d="M4 188v349h287v-349l-164 -194l-92 72l112 122h-143z" />
<glyph unicode="&#x201c;" horiz-adv-x="870" d="M0 1096v348l164 194l92 -71l-113 -123h144v-348h-287zM461 1096v348l164 194l92 -71l-113 -123h144v-348h-287z" />
<glyph unicode="&#x201d;" horiz-adv-x="870" d="M0 1290v348h287v-348l-164 -194l-92 71l112 123h-143zM461 1290v348h287v-348l-164 -194l-92 71l112 123h-143z" />
<glyph unicode="&#x201e;" horiz-adv-x="870" d="M4 193v348h287v-348l-164 -195l-92 72l112 123h-143zM465 193v348h287v-348l-164 -195l-92 72l112 123h-143z" />
<glyph unicode="&#x2022;" horiz-adv-x="922" d="M0 797q2 66 27.5 135.5t77 130t128 97t177.5 36.5q68 0 139.5 -25t131 -72.5t98.5 -124.5t40 -177q0 -75 -29.5 -149.5t-82.5 -135.5t-130 -98t-167 -37q-66 0 -136 26t-134 79.5t-102 133t-38 181.5zM98 799q0 -100 48.5 -171.5t120.5 -108t139 -36.5q88 0 158.5 46.5 t109.5 120t39 149.5q0 73 -29.5 132t-73.5 94t-98.5 54t-105.5 19q-97 0 -166 -46t-104.5 -117t-37.5 -136z" />
<glyph unicode="&#x2026;" horiz-adv-x="1516" d="M0 0v348h348v-348h-348zM512 0v348h348v-348h-348zM1044 0v348h349v-348h-349z" />
<glyph unicode="&#x202f;" horiz-adv-x="451" />
<glyph unicode="&#x2039;" horiz-adv-x="819" d="M0 553v246l696 409v-225l-512 -307l512 -316v-225z" />
<glyph unicode="&#x203a;" horiz-adv-x="819" d="M0 135v225l512 316l-512 307v225l696 -409v-246z" />
<glyph unicode="&#x205f;" horiz-adv-x="564" />
<glyph unicode="&#x2122;" horiz-adv-x="1290" d="M0 1495v143h379v-143h-103v-676h-174v676h-102zM465 819v819h266l82 -393l82 393h266v-819h-174v533l-92 -533h-164l-92 533v-533h-174z" />
<glyph unicode="&#x25fc;" horiz-adv-x="1350" d="M0 0v1350h1350v-1350h-1350z" />
</font>
</defs>
</svg>
